<svg width="25" height="23" viewBox="0 0 25 23" fill="none" xmlns="http://www.w3.org/2000/svg">
<path d="M18.75 12.5C19.7389 12.5 20.7056 12.7932 21.5279 13.3427C22.3501 13.8921 22.991 14.673 23.3694 15.5866C23.7478 16.5002 23.8469 17.5055 23.6539 18.4755C23.461 19.4454 22.9848 20.3363 22.2855 21.0355C21.5863 21.7348 20.6954 22.211 19.7255 22.4039C18.7555 22.5969 17.7502 22.4978 16.8366 22.1194C15.923 21.741 15.1421 21.1001 14.5927 20.2779C14.0432 19.4556 13.75 18.4889 13.75 17.5H11.25C11.2495 18.7131 10.8081 19.8846 10.0079 20.7963C9.20771 21.708 8.10337 22.2977 6.90063 22.4555C5.69789 22.6134 4.47878 22.3286 3.47044 21.6543C2.4621 20.9799 1.7333 19.962 1.41983 18.7901C1.10636 17.6183 1.2296 16.3724 1.76658 15.2847C2.30357 14.197 3.21767 13.3416 4.33859 12.8778C5.45951 12.4141 6.71078 12.3737 7.85929 12.7641C9.00779 13.1545 9.97519 13.9492 10.5813 15H14.4187C14.8575 14.2396 15.4888 13.6081 16.2492 13.1693C17.0095 12.7304 17.8721 12.4995 18.75 12.5ZM6.25 15C5.58696 15 4.95107 15.2634 4.48223 15.7322C4.01339 16.2011 3.75 16.837 3.75 17.5C3.75 18.163 4.01339 18.7989 4.48223 19.2678C4.95107 19.7366 5.58696 20 6.25 20C6.91304 20 7.54893 19.7366 8.01777 19.2678C8.48661 18.7989 8.75 18.163 8.75 17.5C8.75 16.837 8.48661 16.2011 8.01777 15.7322C7.54893 15.2634 6.91304 15 6.25 15ZM18.75 15C18.087 15 17.4511 15.2634 16.9822 15.7322C16.5134 16.2011 16.25 16.837 16.25 17.5C16.25 18.163 16.5134 18.7989 16.9822 19.2678C17.4511 19.7366 18.087 20 18.75 20C19.413 20 20.0489 19.7366 20.5178 19.2678C20.9866 18.7989 21.25 18.163 21.25 17.5C21.25 16.837 20.9866 16.2011 20.5178 15.7322C20.0489 15.2634 19.413 15 18.75 15ZM17.5 0C18.8261 0 20.0979 0.526784 21.0355 1.46447C21.9732 2.40215 22.5 3.67392 22.5 5V8.75H25V11.25H0V8.75H2.5V5C2.5 3.67392 3.02678 2.40215 3.96447 1.46447C4.90215 0.526784 6.17392 0 7.5 0H17.5ZM17.5 2.5H7.5C6.1825 2.5 5 3.6875 5 5V8.75H20V5C20 3.6825 18.8125 2.5 17.5 2.5Z" fill="#38C820"/>
</svg>
