<svg width="19" height="16" viewBox="0 0 19 16" fill="none" xmlns="http://www.w3.org/2000/svg">
<path d="M6.90713 2.52632C7.82307 2.52632 8.70149 2.8812 9.34916 3.5129C9.99683 4.1446 10.3607 5.00138 10.3607 5.89474C10.3607 6.7881 9.99683 7.64487 9.34916 8.27657C8.70149 8.90827 7.82307 9.26316 6.90713 9.26316C5.99118 9.26316 5.11276 8.90827 4.46509 8.27657C3.81742 7.64487 3.45356 6.7881 3.45356 5.89474C3.45356 5.00138 3.81742 4.1446 4.46509 3.5129C5.11276 2.8812 5.99118 2.52632 6.90713 2.52632ZM6.90713 10.9474C9.21238 10.9474 13.8143 12.0758 13.8143 14.3158V16H0V14.3158C0 12.0758 4.60187 10.9474 6.90713 10.9474ZM13.607 2.82947C15.3511 4.68211 15.3511 7.25053 13.607 8.95158L12.1565 7.52842C12.8818 6.53474 12.8818 5.24632 12.1565 4.25263L13.607 2.82947ZM16.4649 0C19.858 3.41053 19.8321 8.51368 16.4649 11.7895L15.0575 10.4168C17.4491 7.73895 17.4491 3.91579 15.0575 1.37263L16.4649 0Z" fill="white"/>
</svg>
