<svg width="54" height="61" viewBox="0 0 54 61" fill="none" xmlns="http://www.w3.org/2000/svg">
<rect x="11" y="6.77795" width="18" height="2" fill="black"/>
<path d="M39.172 6.778L33.808 1.414L35.222 0L43 7.778L35.222 15.556L33.808 14.142L39.172 8.778H27V6.778H39.172Z" fill="black"/>
<rect x="11" y="15.778" width="9" height="2" transform="rotate(-90 11 15.778)" fill="black"/>
<rect x="41" y="53.778" width="18" height="2" transform="rotate(-180 41 53.778)" fill="black"/>
<path d="M12.828 53.7779L18.192 59.1419L16.778 60.5559L9 52.7779L16.778 44.9999L18.192 46.4139L12.828 51.7779H25V53.7779H12.828Z" fill="black"/>
<rect x="41" y="44.778" width="9" height="2" transform="rotate(90 41 44.778)" fill="black"/>
<circle cx="12.5" cy="30.5" r="11.5" stroke="black" stroke-width="2"/>
<circle cx="41.5" cy="30.5" r="11.5" stroke="black" stroke-width="2"/>
<path fill-rule="evenodd" clip-rule="evenodd" d="M41.494 25C41.8489 25 42.1366 25.2736 42.1366 25.6111V26.0919H42.4553C43.8932 26.0919 45 27.2412 45 28.6015C45 28.939 44.7123 29.2126 44.3574 29.2126C44.0025 29.2126 43.7148 28.939 43.7148 28.6015C43.7148 27.8595 43.1252 27.3141 42.4553 27.3141H42.1366V30.0634L43.4411 30.4944C43.8259 30.6241 44.2432 30.8185 44.5515 31.1924C44.8657 31.5736 45 32.0585 45 32.643C45 33.8667 43.994 34.9081 42.6952 34.9081H42.1366V35.3889C42.1366 35.7264 41.8489 36 41.494 36C41.1391 36 40.8514 35.7264 40.8514 35.3889V34.9081H40.5447C39.1068 34.9081 38 33.7588 38 32.3985C38 32.061 38.2877 31.7874 38.6426 31.7874C38.9975 31.7874 39.2852 32.061 39.2852 32.3985C39.2852 33.1405 39.8748 33.6859 40.5447 33.6859H40.8514V30.9327L39.5589 30.5056C39.1741 30.3759 38.7568 30.1815 38.4485 29.8076C38.1343 29.4264 38 28.9415 38 28.357C38 27.1333 39.006 26.0919 40.3048 26.0919H40.8514V25.6111C40.8514 25.2736 41.1391 25 41.494 25ZM40.8514 27.3141H40.3048C39.77 27.3141 39.2852 27.7556 39.2852 28.357C39.2852 28.7666 39.3779 28.954 39.46 29.0535C39.5478 29.1601 39.6956 29.2548 39.9864 29.353L40.8514 29.6388V27.3141ZM42.1366 31.3573V33.6859H42.6952C43.23 33.6859 43.7148 33.2444 43.7148 32.643C43.7148 32.2334 43.6221 32.046 43.54 31.9465C43.4522 31.8399 43.3044 31.7452 43.0136 31.647L42.1366 31.3573Z" fill="black"/>
<path fill-rule="evenodd" clip-rule="evenodd" d="M10.73 25C11.085 25 11.3729 25.2894 11.3729 25.6465V26.6204H11.4517C11.4525 26.6204 11.4533 26.6204 11.454 26.6204H12.0946V25.6465C12.0946 25.2894 12.3824 25 12.7374 25C13.0925 25 13.3803 25.2894 13.3803 25.6465V26.6204H13.9443C15.2097 26.6204 16.1986 27.7369 16.1986 28.8891C16.1986 29.3682 16.0507 29.8126 15.7983 30.1787C16.5009 30.5633 17 31.2606 17 32.1213C17 33.4502 15.8091 34.3882 14.5177 34.3882H13.3803V35.3535C13.3803 35.7106 13.0925 36 12.7374 36C12.3824 36 12.0946 35.7106 12.0946 35.3535V34.3882H11.3729V35.3535C11.3729 35.7106 11.085 36 10.73 36C10.375 36 10.0871 35.7106 10.0871 35.3535V34.3882H9.92857C9.88926 34.3882 9.85077 34.3846 9.81341 34.3778H8.64286C8.28782 34.3778 8 34.0884 8 33.7314C8 33.3744 8.28782 33.0849 8.64286 33.0849H9.28571V27.9133H8.64286C8.28782 27.9133 8 27.6239 8 27.2669C8 26.9099 8.28782 26.6204 8.64286 26.6204H10.0871V25.6465C10.0871 25.2894 10.375 25 10.73 25ZM10.5714 27.9133V29.8527H14.0859C14.5535 29.7837 14.9129 29.3783 14.9129 28.8891C14.9129 28.4087 14.4584 27.9133 13.9443 27.9133H10.5714ZM10.5714 31.1559V33.0849H11.4517C11.491 33.0849 11.5295 33.0885 11.5669 33.0953H12.6223C12.6596 33.0885 12.6981 33.0849 12.7374 33.0849C12.7767 33.0849 12.8152 33.0885 12.8526 33.0953H14.5177C15.2629 33.0953 15.7143 32.5818 15.7143 32.1213C15.7143 31.6593 15.2622 31.1456 14.5177 31.1456H14.161C14.0897 31.1524 14.0174 31.1559 13.9443 31.1559H10.5714Z" fill="black"/>
</svg>
