<svg width="54" height="61" viewBox="0 0 54 61" fill="none" xmlns="http://www.w3.org/2000/svg">
<rect x="11" y="6.77795" width="18" height="2" fill="black"/>
<path d="M39.172 6.778L33.808 1.414L35.222 0L43 7.778L35.222 15.556L33.808 14.142L39.172 8.778H27V6.778H39.172Z" fill="black"/>
<rect x="11" y="15.778" width="9" height="2" transform="rotate(-90 11 15.778)" fill="black"/>
<rect x="41" y="53.778" width="18" height="2" transform="rotate(-180 41 53.778)" fill="black"/>
<path d="M12.828 53.7779L18.192 59.1419L16.778 60.5559L9 52.7779L16.778 44.9999L18.192 46.4139L12.828 51.7779H25V53.7779H12.828Z" fill="black"/>
<rect x="41" y="44.778" width="9" height="2" transform="rotate(90 41 44.778)" fill="black"/>
<circle cx="12.5" cy="30.5" r="11.5" stroke="black" stroke-width="2"/>
<circle cx="41.5" cy="30.5" r="11.5" stroke="black" stroke-width="2"/>
<path fill-rule="evenodd" clip-rule="evenodd" d="M12.494 25C12.8489 25 13.1366 25.2736 13.1366 25.6111V26.0919H13.4553C14.8932 26.0919 16 27.2412 16 28.6015C16 28.939 15.7123 29.2126 15.3574 29.2126C15.0025 29.2126 14.7148 28.939 14.7148 28.6015C14.7148 27.8595 14.1252 27.3141 13.4553 27.3141H13.1366V30.0634L14.4411 30.4944C14.8259 30.6241 15.2432 30.8185 15.5515 31.1924C15.8657 31.5736 16 32.0585 16 32.643C16 33.8667 14.994 34.9081 13.6952 34.9081H13.1366V35.3889C13.1366 35.7264 12.8489 36 12.494 36C12.1391 36 11.8514 35.7264 11.8514 35.3889V34.9081H11.5447C10.1068 34.9081 9 33.7588 9 32.3985C9 32.061 9.2877 31.7874 9.64259 31.7874C9.99749 31.7874 10.2852 32.061 10.2852 32.3985C10.2852 33.1405 10.8748 33.6859 11.5447 33.6859H11.8514V30.9327L10.5589 30.5056C10.1741 30.3759 9.75676 30.1815 9.44852 29.8076C9.13433 29.4264 9 28.9415 9 28.357C9 27.1333 10.006 26.0919 11.3048 26.0919H11.8514V25.6111C11.8514 25.2736 12.1391 25 12.494 25ZM11.8514 27.3141H11.3048C10.77 27.3141 10.2852 27.7556 10.2852 28.357C10.2852 28.7666 10.3779 28.954 10.46 29.0535C10.5478 29.1601 10.6956 29.2548 10.9864 29.353L11.8514 29.6388V27.3141ZM13.1366 31.3573V33.6859H13.6952C14.23 33.6859 14.7148 33.2444 14.7148 32.643C14.7148 32.2334 14.6221 32.046 14.54 31.9465C14.4522 31.8399 14.3044 31.7452 14.0136 31.647L13.1366 31.3573Z" fill="black"/>
<path d="M42.3333 36C41.1315 36 40.062 35.6588 39.125 34.9764C38.188 34.294 37.5259 33.413 37.1389 32.3333H35V31.1111H36.8639C36.8333 30.8667 36.8207 30.6399 36.826 30.4309C36.8309 30.2224 36.8435 30.0417 36.8639 29.8889H35V28.6667H37.1389C37.5259 27.587 38.188 26.706 39.125 26.0236C40.062 25.3412 41.1315 25 42.3333 25C43.0361 25 43.7008 25.1247 44.3274 25.374C44.9536 25.6237 45.5111 25.9676 46 26.4056L45.1292 27.2611C44.7523 26.9352 44.3272 26.6806 43.8538 26.4972C43.38 26.3139 42.8731 26.2222 42.3333 26.2222C41.4676 26.2222 40.6935 26.4487 40.0111 26.9018C39.3287 27.3552 38.8144 27.9435 38.4681 28.6667H42.3333V29.8889H38.1014C38.0606 30.1639 38.0454 30.4059 38.0556 30.6149C38.0657 30.8235 38.081 30.9889 38.1014 31.1111H42.3333V32.3333H38.4681C38.8144 33.0565 39.3287 33.6446 40.0111 34.0976C40.6935 34.5511 41.4676 34.7778 42.3333 34.7778C42.8731 34.7778 43.38 34.6861 43.8538 34.5028C44.3272 34.3194 44.7523 34.0648 45.1292 33.7389L46 34.5944C45.5111 35.0324 44.9536 35.3761 44.3274 35.6254C43.7008 35.8751 43.0361 36 42.3333 36Z" fill="black"/>
</svg>
