<svg width="25" height="25" viewBox="0 0 25 25" fill="none" xmlns="http://www.w3.org/2000/svg">
<path d="M8.84167 10.6694C10.1449 12.959 12.041 14.8551 14.3306 16.1583L15.5583 14.4389C15.7558 14.1624 16.0477 13.9679 16.3789 13.8921C16.7101 13.8164 17.0576 13.8646 17.3556 14.0278C19.3199 15.1013 21.4892 15.7469 23.7208 15.9222C24.0691 15.9498 24.3942 16.1077 24.6313 16.3643C24.8684 16.621 25 16.9576 25 17.3069V23.5042C25.0001 23.848 24.8726 24.1797 24.6422 24.435C24.4118 24.6903 24.0949 24.851 23.7528 24.8861C23.0167 24.9625 22.275 25 21.5278 25C9.63889 25 0 15.3611 0 3.47222C0 2.725 0.0375 1.98333 0.113889 1.24722C0.148965 0.905135 0.3097 0.588223 0.564986 0.357825C0.820271 0.127427 1.15195 -7.4108e-05 1.49583 3.23156e-08H7.69305C8.04245 -4.37757e-05 8.37902 0.131599 8.63567 0.368682C8.89231 0.605764 9.05018 0.930866 9.07778 1.27917C9.25309 3.51082 9.89872 5.68011 10.9722 7.64444C11.1354 7.94245 11.1836 8.28992 11.1079 8.6211C11.0321 8.95229 10.8376 9.24422 10.5611 9.44167L8.84167 10.6694ZM5.33889 9.75694L7.97778 7.87222C7.22887 6.25569 6.71577 4.54006 6.45417 2.77778H2.79167C2.78333 3.00833 2.77917 3.24028 2.77917 3.47222C2.77778 13.8278 11.1722 22.2222 21.5278 22.2222C21.7597 22.2222 21.9917 22.2181 22.2222 22.2083V18.5458C20.4599 18.2842 18.7443 17.7711 17.1278 17.0222L15.2431 19.6611C14.4843 19.3663 13.7472 19.0182 13.0375 18.6194L12.9569 18.5736C10.2327 17.0232 7.97678 14.7673 6.42639 12.0431L6.38056 11.9625C5.98182 11.2528 5.63373 10.5157 5.33889 9.75694Z" fill="#38C820"/>
</svg>
