<svg width="20" height="20" viewBox="0 0 20 20" fill="none" xmlns="http://www.w3.org/2000/svg">
<path fill-rule="evenodd" clip-rule="evenodd" d="M19.6654 9.83955C19.6654 15.2738 15.2632 19.6791 9.83272 19.6791C4.40226 19.6791 0 15.2738 0 9.83955C0 4.40532 4.40226 0 9.83272 0C15.2632 0 19.6654 4.40532 19.6654 9.83955ZM10.1851 7.26399C9.22875 7.66206 7.31731 8.48596 4.45087 9.73566C3.98541 9.92089 3.74158 10.1021 3.71938 10.2793C3.68186 10.5787 4.0566 10.6967 4.56688 10.8572C4.63629 10.8791 4.70822 10.9017 4.78195 10.9257C5.28399 11.089 5.95932 11.2801 6.3104 11.2876C6.62886 11.2945 6.9843 11.1631 7.37672 10.8935C10.0549 9.08437 11.4374 8.16995 11.5242 8.15024C11.5855 8.13633 11.6703 8.11884 11.7278 8.16999C11.7853 8.22111 11.7797 8.31795 11.7735 8.34394C11.7364 8.50228 10.2654 9.87079 9.50423 10.579C9.26693 10.7997 9.09863 10.9563 9.06421 10.9921C8.98711 11.0723 8.90853 11.1481 8.83306 11.2209C8.36666 11.6708 8.01689 12.0082 8.8524 12.5592C9.25398 12.824 9.57527 13.0429 9.89581 13.2613C10.2459 13.4999 10.595 13.7379 11.0467 14.0342C11.1619 14.1098 11.2717 14.1881 11.3788 14.2645C11.7862 14.5552 12.1523 14.8162 12.6044 14.7746C12.8672 14.7504 13.1386 14.5032 13.2764 13.7659C13.6021 12.0233 14.2424 8.2476 14.3904 6.6917C14.4034 6.55538 14.3871 6.38093 14.374 6.30435C14.3609 6.22777 14.3335 6.11865 14.234 6.03788C14.1162 5.94222 13.9344 5.92205 13.853 5.92348C13.4831 5.93 12.9158 6.12743 10.1851 7.26399Z" fill="white"/>
</svg>
